<?xml version="1.0" encoding="UTF-8"?>
<svg width="206px" height="206px" viewBox="0 0 206 206" version="1.1" xmlns="http://www.w3.org/2000/svg" xmlns:xlink="http://www.w3.org/1999/xlink">
    <!-- Generator: Sketch 52.6 (67491) - http://www.bohemiancoding.com/sketch -->
    <title>Group 3</title>
    <desc>Created with Sketch.</desc>
    <g id="Page-1" stroke="none" stroke-width="1" fill="none" fill-rule="evenodd">
        <g id="Artboard" transform="translate(-122.000000, -359.000000)">
            <g id="Group-3" transform="translate(122.000000, 359.000000)">
                <circle id="Oval" fill="#FCD864" cx="103" cy="103" r="103"></circle>
                <g id="Group-2" transform="translate(51.000000, 31.000000)" stroke="#FFFFFF">
                    <g id="Group" transform="translate(0.000000, 13.000000)">
                        <path d="M5.70537198,76.9349787 C7.23885923,76.4516902 8.63830136,74.8143432 8.68909049,74.7709512 C8.71516163,74.7486772 7.71928601,75.1837824 6.88003858,75.2282573 C6.41220631,75.2530495 5.92089547,75.1094835 5.6860002,74.8346437 C5.49951528,74.6164465 5.31297415,74.2319545 5.17380475,73.542229 C5.03463536,72.8525035 5.14809844,71.4874037 4.52139866,71.4874037 C2.58840203,71.4874037 2.96720346,74.5469853 2.96720346,75.6515548 C2.96720346,76.7561243 4.17188474,77.4182673 5.70537198,76.9349787 Z" id="Oval" stroke-width="0.5" fill="#FFFFFF" transform="translate(5.813381, 74.291328) rotate(-28.000000) translate(-5.813381, -74.291328) "></path>
                        <path d="M106.657647,37.1737999 C107.796214,36.2013629 107.914266,35.4258327 107.916025,35.4210685 C107.916666,35.4193293 107.4893,35.7946069 106.903591,35.9967073 C106.63194,36.0904408 106.339914,36.0941516 106.124249,36.0241394 C105.756594,35.9047863 105.449944,35.5518686 105.377903,35.1785753 C105.305863,34.805282 105.193505,34.4660116 105.17821,34.3763754 C105.059802,33.6824345 105.170691,32.5343125 104.543991,32.5343125 C102.610995,32.5343125 102.989796,35.5938941 102.989796,36.6984636 C102.989796,37.5003384 104.33756,37.8865435 105.515483,37.6562958 C105.936835,37.5739346 106.357675,37.4300021 106.657647,37.1737999 Z" id="Oval" stroke-width="0.5" fill="#FFFFFF" transform="translate(105.437894, 35.128239) scale(1, -1) rotate(-107.000000) translate(-105.437894, -35.128239) "></path>
                        <path d="M5.65059455,75.5043763 C3.44856662,77.5371443 1.27383444,71.1310405 1.01497886,63.7555244 C0.763127415,56.5795756 1.78502678,47.3296978 4.24434046,39.5103366 C9.23136279,23.6541531 19.9459306,12.2001599 32.3954389,14.4773407 C44.8449473,16.7545215 47.4755791,30.010755 49.0968363,53.6791354 C49.7905865,81.1473153 39.1159091,107.039979 32.3954389,117 C25.6749687,126.960021 17.4049544,134.447016 10.9889272,132.448773 C4.57289995,130.45053 -3.42449192,109.442342 15.5339413,81.0917299 C22.1699382,71.1682003 35.3065518,59.4654101 49.0968363,51.9181122 C65.8877452,42.7285998 84.272022,36.0558147 95.9908952,33.7825905 C101.466181,32.7204959 104.456201,32.8047501 106.057589,33.4180123 C107.125181,33.8268537 107.090452,34.5307853 105.953402,35.5298071" id="Path-2" stroke-width="4" stroke-linejoin="round"></path>
                        <path d="M88.1892939,0.502710162 L88.1892939,78.8922444" id="Line" stroke-width="4" stroke-linecap="round" transform="translate(88.189294, 39.502710) rotate(-1.000000) translate(-88.189294, -39.502710) "></path>
                        <path d="M62.1892939,6.50271016 L62.1892939,84.8922444" id="Line" stroke-width="4" stroke-linecap="round" transform="translate(62.189294, 45.502710) rotate(-1.000000) translate(-62.189294, -45.502710) "></path>
                    </g>
                    <path d="M97.6054853,10.1306115 C99.2623395,10.1306115 100.76234,9.7972782 102.105485,9.13061153 C100.76234,8.46394486 99.2623395,8.13061153 97.6054853,8.13061153 C95.948631,8.13061153 94.448631,8.46394486 93.1054853,9.13061153 C94.448631,9.7972782 95.948631,10.1306115 97.6054853,10.1306115 Z" id="Oval" fill="#FFFFFF" transform="translate(97.605485, 9.130612) rotate(-15.000000) translate(-97.605485, -9.130612) "></path>
                    <path d="M94.9316875,5.84530247 C96.5885417,5.84530247 98.0885417,5.51196913 99.4316875,4.84530247 C98.0885417,4.1786358 96.5885417,3.84530247 94.9316875,3.84530247 C93.2748332,3.84530247 91.7748332,4.1786358 90.4316875,4.84530247 C91.7748332,5.51196913 93.2748332,5.84530247 94.9316875,5.84530247 Z" id="Oval" fill="#FFFFFF" transform="translate(94.931687, 4.845302) rotate(-45.000000) translate(-94.931687, -4.845302) "></path>
                    <path d="M97.6082527,15.0589443 C99.2651069,15.0589443 100.765107,14.7256109 102.108253,14.0589443 C100.765107,13.3922776 99.2651069,13.0589443 97.6082527,13.0589443 C95.9513984,13.0589443 94.4513984,13.3922776 93.1082527,14.0589443 C94.4513984,14.7256109 95.9513984,15.0589443 97.6082527,15.0589443 Z" id="Oval" fill="#FFFFFF" transform="translate(97.608253, 14.058944) rotate(15.000000) translate(-97.608253, -14.058944) "></path>
                </g>
            </g>
        </g>
    </g>
</svg>